<svg width="25" height="26" viewBox="0 0 25 26" fill="none" xmlns="http://www.w3.org/2000/svg">
<path fill-rule="evenodd" clip-rule="evenodd" d="M15.0722 17.8399C13.6362 18.7337 11.9409 19.25 10.125 19.25C4.94733 19.25 0.75 15.0527 0.75 9.875C0.75 4.69733 4.94733 0.5 10.125 0.5C15.3027 0.5 19.5 4.69733 19.5 9.875C19.5 12.3321 18.5547 14.5685 17.008 16.2402L24.1339 23.3661C24.622 23.8543 24.622 24.6457 24.1339 25.1339C23.6457 25.622 22.8543 25.622 22.3661 25.1339L15.0722 17.8399ZM17 9.875C17 13.672 13.922 16.75 10.125 16.75C6.32804 16.75 3.25 13.672 3.25 9.875C3.25 6.07804 6.32804 3 10.125 3C13.922 3 17 6.07804 17 9.875Z" fill="#85858B"/>
</svg>
